<svg width="17" height="16" viewBox="0 0 17 16" fill="none" xmlns="http://www.w3.org/2000/svg">
<path d="M1.5 15V10.1C1.50169 9.35802 1.72915 8.6471 2.13271 8.12247C2.53627 7.59784 3.08313 7.30214 3.65385 7.29994H13.3462C13.9169 7.30214 14.4637 7.59784 14.8673 8.12247C15.2708 8.6471 15.4983 9.35802 15.5 10.1V15M12.8077 7.29994H3.11538V2.74992C3.11645 2.28621 3.25862 1.8419 3.51084 1.514C3.76306 1.18611 4.10484 1.00129 4.46154 0.999908H12.5385C12.8952 1.00129 13.2369 1.18611 13.4892 1.514C13.7414 1.8419 13.8836 2.28621 13.8846 2.74992V7.29994H12.8077Z" stroke="#7E7E7E" stroke-width="1.16216" stroke-linecap="round" stroke-linejoin="round"/>
<path d="M1.5 15.0001V14.6501C1.50062 14.3719 1.58592 14.1053 1.73725 13.9085C1.88859 13.7118 2.09367 13.6009 2.30769 13.6001H14.6923C14.9063 13.6009 15.1114 13.7118 15.2627 13.9085C15.4141 14.1053 15.4994 14.3719 15.5 14.6501V15.0001M3.65385 7.30005V6.60005C3.65465 6.22907 3.76836 5.87357 3.97015 5.61124C4.17194 5.34892 4.4454 5.20108 4.73077 5.20004H7.42308C7.70845 5.20108 7.9819 5.34892 8.18369 5.61124C8.38548 5.87357 8.4992 6.22907 8.5 6.60005M8.5 6.60005V7.30005M8.5 6.60005C8.5008 6.22907 8.61452 5.87357 8.81631 5.61124C9.0181 5.34892 9.29155 5.20108 9.57692 5.20004H12.2692C12.5546 5.20108 12.8281 5.34892 13.0298 5.61124C13.2316 5.87357 13.3454 6.22907 13.3462 6.60005V7.30005" stroke="#7E7E7E" stroke-width="1.16216" stroke-linecap="round" stroke-linejoin="round"/>
</svg>
