<svg width="17" height="16" viewBox="0 0 17 16" fill="none" xmlns="http://www.w3.org/2000/svg">
<path d="M2.29663 1.49161L13.8103 13.0053C14.0288 13.2237 14.1515 13.5201 14.1515 13.829C14.1515 14.138 14.0288 14.4343 13.8103 14.6528C13.5918 14.8712 13.2955 14.9939 12.9865 14.9939C12.6776 14.9939 12.3813 14.8712 12.1628 14.6528L9.3502 11.7918C9.16614 11.6049 9.06289 11.3532 9.06269 11.0909V10.918C9.06272 10.7856 9.03643 10.6545 8.98536 10.5322C8.93429 10.41 8.85945 10.2992 8.76519 10.2061L8.40206 9.87083C8.27878 9.75708 8.12888 9.67617 7.96614 9.63554C7.8034 9.59491 7.63306 9.59587 7.47079 9.63832C7.2149 9.70511 6.94599 9.70382 6.69076 9.63458C6.43552 9.56535 6.20282 9.43057 6.01576 9.24363L3.34602 6.57358C1.76224 4.9898 1.17942 2.59819 2.29663 1.49161Z" stroke="#7E7E7E" stroke-width="1.16216" stroke-linejoin="round"/>
<path d="M13 1L10.5858 3.41411C10.4001 3.59984 10.2527 3.82034 10.1522 4.06302C10.0516 4.30571 9.99989 4.56582 9.9999 4.82851V5.29289C9.99991 5.3586 9.98697 5.42366 9.96182 5.48436C9.93667 5.54506 9.8998 5.60021 9.85333 5.64665L9.49989 6.0001M10.4999 7.00011L10.8533 6.64667C10.8998 6.6002 10.9549 6.56333 11.0156 6.53818C11.0763 6.51303 11.1414 6.50009 11.2071 6.5001H11.6715C11.9342 6.50011 12.1943 6.44836 12.437 6.34782C12.6797 6.24728 12.9002 6.09992 13.0859 5.91416L15.5 3.50005M14.25 2.25002L11.7499 4.75007M6.74983 11.5002L3.63352 14.634C3.39911 14.8684 3.08122 15 2.74976 15C2.4183 15 2.1004 14.8684 1.86599 14.634C1.63165 14.3996 1.5 14.0817 1.5 13.7502C1.5 13.4188 1.63165 13.1009 1.86599 12.8665L4.49979 10.2502" stroke="#7E7E7E" stroke-width="1.16216" stroke-linecap="round" stroke-linejoin="round"/>
</svg>
