<svg width="15" height="16" viewBox="0 0 15 16" fill="none" xmlns="http://www.w3.org/2000/svg">
<path d="M1.43333 8.71562H12.6333V3.47863C12.6339 3.28141 12.5952 3.08604 12.5195 2.90383C12.4439 2.72162 12.3327 2.55619 12.1925 2.41712L12.1809 2.40548C11.9612 2.18665 11.6791 2.04081 11.3732 1.98789C11.0673 1.93497 10.7524 1.97756 10.4717 2.10983C10.7368 2.54956 10.847 3.06506 10.7848 3.57443C10.7226 4.0838 10.4914 4.5578 10.1282 4.92113L9.80877 5.23974L10.3967 5.82622L9.73676 6.48451L9.14885 5.89806L5.89125 2.64859L5.30334 2.06214L5.96329 1.40382L6.55124 1.99028L6.87064 1.67166C7.25306 1.29126 7.75715 1.05677 8.29509 1.00905C8.83303 0.961327 9.3707 1.1034 9.8144 1.41051C10.2823 1.11576 10.8368 0.988516 11.3867 1.04968C11.9367 1.11084 12.4495 1.35677 12.8408 1.74708L12.8525 1.75871C13.0796 1.98405 13.2597 2.25209 13.3823 2.54731C13.5049 2.84253 13.5675 3.15908 13.5667 3.47863V8.71562H14.5V9.64664H13.5667V10.5398C13.5667 10.6149 13.5546 10.6894 13.5307 10.7606L12.6625 13.3588C12.6162 13.4979 12.5271 13.6189 12.4079 13.7046C12.2887 13.7903 12.1454 13.8363 11.9985 13.8362H11.6222L11.9625 15H10.9903L10.65 13.8362H4.58042L4.23042 15H3.25625L3.60625 13.8362H3.00163C2.85466 13.8364 2.7114 13.7903 2.59217 13.7046C2.47295 13.6189 2.38384 13.4979 2.3375 13.3588L1.46933 10.7606C1.4455 10.6894 1.43335 10.6149 1.43333 10.5398V9.64664H0.5V8.71562H1.43333ZM9.46817 2.32998C9.21103 2.07405 8.86263 1.93031 8.49938 1.93031C8.13614 1.93031 7.78773 2.07405 7.5306 2.32998L7.21125 2.64859L9.14876 4.58131L9.46817 4.26275C9.72472 4.00625 9.86881 3.65871 9.86881 3.29637C9.86881 2.93403 9.72472 2.58648 9.46817 2.32998ZM2.36667 10.502L3.16968 12.9052H11.8303L12.6333 10.502V9.64664H2.36667V10.502Z" fill="#7E7E7E" stroke="#7E7E7E" stroke-width="0.19"/>
</svg>
