<svg width="24" height="35" viewBox="0 0 24 35" fill="none" xmlns="http://www.w3.org/2000/svg">
<path d="M24 12C24 10.4241 23.6896 8.86371 23.0866 7.4078C22.4835 5.95189 21.5996 4.62902 20.4853 3.51472C19.371 2.40042 18.0481 1.5165 16.5922 0.913445C15.1363 0.310389 13.5759 0 12 0C10.4241 0 8.86371 0.310389 7.4078 0.913445C5.95189 1.5165 4.62902 2.40042 3.51472 3.51472C2.40042 4.62902 1.5165 5.95189 0.913445 7.4078C0.310389 8.86371 -2.34822e-08 10.4241 0 12C0 14.3777 0.701143 16.5891 1.89429 18.4543H1.88057L12 34.2857L22.1194 18.4543H22.1074C23.3433 16.5285 24.0002 14.2883 24 12ZM12 17.1429C10.636 17.1429 9.32792 16.601 8.36345 15.6365C7.39898 14.6721 6.85714 13.364 6.85714 12C6.85714 10.636 7.39898 9.32792 8.36345 8.36345C9.32792 7.39898 10.636 6.85714 12 6.85714C13.364 6.85714 14.6721 7.39898 15.6365 8.36345C16.601 9.32792 17.1429 10.636 17.1429 12C17.1429 13.364 16.601 14.6721 15.6365 15.6365C14.6721 16.601 13.364 17.1429 12 17.1429Z" fill="#DA121A"/>
</svg>
