<svg width="32" height="32" viewBox="0 0 32 32" fill="none" xmlns="http://www.w3.org/2000/svg">
<g clip-path="url(#clip0_546_6149)">
<path d="M29 0.750116H3C2.41008 0.744112 1.84187 0.972377 1.42005 1.38482C0.998227 1.79727 0.757253 2.36021 0.75 2.95012V29.0551C0.758564 29.6442 1.00012 30.2058 1.42179 30.6172C1.84347 31.0285 2.41093 31.2561 3 31.2501H29C29.59 31.2548 30.1578 31.0258 30.5794 30.6131C31.001 30.2003 31.2421 29.6375 31.25 29.0476V2.94262C31.2395 2.35444 30.9972 1.79418 30.5759 1.38363C30.1546 0.973077 29.5883 0.74541 29 0.750116Z" fill="#0076B2"/>
<path d="M5.69331 12.5833H10.2208V27.1508H5.69331V12.5833ZM7.95831 5.33325C8.4776 5.33325 8.98521 5.48727 9.41694 5.77582C9.84868 6.06437 10.1851 6.47448 10.3837 6.95429C10.5823 7.43409 10.6342 7.96202 10.5327 8.47128C10.4312 8.98055 10.1809 9.44828 9.81358 9.81529C9.44622 10.1823 8.97826 10.4321 8.46889 10.5331C7.95953 10.6341 7.43165 10.5818 6.95204 10.3827C6.47242 10.1837 6.06263 9.84681 5.77449 9.4148C5.48635 8.9828 5.33282 8.47503 5.33331 7.95575C5.33398 7.25999 5.61083 6.59295 6.10304 6.10121C6.59525 5.60947 7.26255 5.33325 7.95831 5.33325ZM13.0608 12.5833H17.4008V14.5833H17.4608C18.0658 13.4383 19.5408 12.2308 21.7433 12.2308C26.3283 12.2208 27.1783 15.2383 27.1783 19.1508V27.1508H22.6508V20.0633C22.6508 18.3758 22.6208 16.2033 20.2983 16.2033C17.9758 16.2033 17.5808 18.0433 17.5808 19.9533V27.1508H13.0608V12.5833Z" fill="white"/>
</g>
<defs>
<clipPath id="clip0_546_6149">
<rect width="32" height="32" fill="white"/>
</clipPath>
</defs>
</svg>
