<svg width="12" height="14" viewBox="0 0 12 14" fill="none" xmlns="http://www.w3.org/2000/svg">
<path d="M10.2514 2.00033C9.99192 1.99997 9.73562 2.05785 9.50144 2.16971V1.75033C9.5016 1.33324 9.35278 0.929802 9.08181 0.612725C8.81083 0.295648 8.43551 0.0857804 8.02349 0.0209422C7.61146 -0.0438959 7.18983 0.040559 6.83456 0.259088C6.4793 0.477616 6.21377 0.815848 6.08582 1.21283C5.81932 1.06828 5.51984 0.995446 5.21672 1.00146C4.91361 1.00748 4.61725 1.09214 4.3567 1.24714C4.09615 1.40215 3.88033 1.62219 3.7304 1.8857C3.58048 2.14921 3.50158 2.44716 3.50144 2.75033V6.75033L3.26269 6.36721C3.0308 5.96701 2.6499 5.6749 2.20326 5.55472C1.75662 5.43454 1.28056 5.49606 0.879152 5.72584C0.477739 5.95562 0.183617 6.33497 0.0610755 6.78096C-0.0614662 7.22696 -0.00246084 7.70334 0.225194 8.10596C1.22519 10.2166 2.03332 11.7135 2.95769 12.6491C3.89144 13.5966 4.95144 14.0003 6.50144 14.0003C7.95963 13.9987 9.35761 13.4187 10.3887 12.3876C11.4198 11.3565 11.9998 9.95852 12.0014 8.50033V3.75033C12.0014 3.2862 11.8171 2.84108 11.4889 2.5129C11.1607 2.18471 10.7156 2.00033 10.2514 2.00033ZM11.0014 8.50033C11.0001 9.6934 10.5256 10.8372 9.68196 11.6809C8.83834 12.5245 7.69451 12.999 6.50144 13.0003C5.22769 13.0003 4.40707 12.6953 3.66832 11.9472C2.84144 11.1091 2.08019 9.68783 1.12019 7.66158C1.11461 7.64917 1.10835 7.63707 1.10144 7.62533C1.00199 7.45302 0.975054 7.24827 1.02657 7.0561C1.07808 6.86393 1.20382 6.7001 1.37613 6.60065C1.54844 6.50119 1.7532 6.47426 1.94537 6.52577C2.13753 6.57728 2.30136 6.70302 2.40082 6.87533C2.40341 6.88032 2.40633 6.88512 2.40957 6.88971L3.57644 8.76471C3.63377 8.8572 3.7197 8.92847 3.8212 8.9677C3.9227 9.00692 4.03422 9.01197 4.13885 8.98207C4.24348 8.95216 4.33549 8.88894 4.40093 8.802C4.46637 8.71506 4.50166 8.60915 4.50144 8.50033V2.75033C4.50144 2.55142 4.58046 2.36065 4.72111 2.22C4.86177 2.07935 5.05253 2.00033 5.25144 2.00033C5.45036 2.00033 5.64112 2.07935 5.78177 2.22C5.92243 2.36065 6.00144 2.55142 6.00144 2.75033V6.50033C6.00144 6.63294 6.05412 6.76012 6.14789 6.85389C6.24166 6.94765 6.36884 7.00033 6.50144 7.00033C6.63405 7.00033 6.76123 6.94765 6.855 6.85389C6.94877 6.76012 7.00144 6.63294 7.00144 6.50033V1.75033C7.00144 1.55142 7.08046 1.36065 7.22111 1.22C7.36177 1.07935 7.55253 1.00033 7.75144 1.00033C7.95036 1.00033 8.14112 1.07935 8.28177 1.22C8.42243 1.36065 8.50144 1.55142 8.50144 1.75033V6.50033C8.50144 6.63294 8.55412 6.76012 8.64789 6.85389C8.74166 6.94765 8.86884 7.00033 9.00144 7.00033C9.13405 7.00033 9.26123 6.94765 9.355 6.85389C9.44877 6.76012 9.50144 6.63294 9.50144 6.50033V3.75033C9.50144 3.55142 9.58046 3.36065 9.72111 3.22C9.86177 3.07935 10.0525 3.00033 10.2514 3.00033C10.4504 3.00033 10.6411 3.07935 10.7818 3.22C10.9224 3.36065 11.0014 3.55142 11.0014 3.75033V8.50033Z" fill="#7E7E7E"/>
</svg>
