<svg width="15" height="16" viewBox="0 0 15 16" fill="none" xmlns="http://www.w3.org/2000/svg">
<path d="M11.5046 4.39563L9.79052 1.70574C9.66347 1.50679 9.49462 1.3436 9.29794 1.22969C9.10127 1.11577 8.88244 1.05441 8.65958 1.0507L5.40671 1H5.4C3.72061 1 2.43209 1.30517 1.60221 2.79451C0.829583 4.18083 0.5 6.54236 0.5 10.6907V11.1977H1.56625L0.879867 15H1.83099L2.51737 11.1977H2.83333C3.59551 11.2051 4.32978 10.8865 4.87757 10.3107C5.37279 9.79595 5.72999 9.09169 5.91062 8.27413L5.91225 8.26678L6.71268 4.1H5.75922L5.0015 8.04453C4.77073 9.08003 4.08067 10.1837 2.83333 10.1837H1.43508C1.46043 6.59477 1.76122 4.46696 2.40065 3.31945C2.93731 2.35619 3.72175 2.01427 5.39676 2.01379L8.64616 2.06449C8.72045 2.06572 8.7934 2.08617 8.85896 2.12414C8.92452 2.16211 8.9808 2.21652 9.02314 2.28284L10.9621 5.3253L13.5667 5.79692V6.33428L13.1323 8.85082C13.0041 9.59357 12.785 9.96772 11.8864 10.085L8.20245 10.7697L8.1781 15H9.11143L9.13088 11.6257L12.0096 11.0902C12.6618 11.0031 13.143 10.7747 13.4804 10.3923C13.7688 10.0654 13.9444 9.64772 14.0497 9.0377L14.5 6.42851V4.93797L11.5046 4.39563Z" fill="#7E7E7E" stroke="#7E7E7E" stroke-width="0.13"/>
</svg>
