<svg width="14" height="14" viewBox="0 0 14 14" fill="none" xmlns="http://www.w3.org/2000/svg">
<path fill-rule="evenodd" clip-rule="evenodd" d="M9.57 8.4525L13.8675 12.75L12.75 13.8675L8.4525 9.57C7.65 10.1475 6.6825 10.5 5.625 10.5C2.9325 10.5 0.75 8.3175 0.75 5.625C0.75 2.9325 2.9325 0.75 5.625 0.75C8.3175 0.75 10.5 2.9325 10.5 5.625C10.5 6.6825 10.1475 7.65 9.57 8.4525ZM5.625 2.25C3.7575 2.25 2.25 3.7575 2.25 5.625C2.25 7.4925 3.7575 9 5.625 9C7.4925 9 9 7.4925 9 5.625C9 3.7575 7.4925 2.25 5.625 2.25Z" fill="white"/>
</svg>
