<svg width="19" height="18" viewBox="0 0 19 18" fill="none" xmlns="http://www.w3.org/2000/svg">
<path d="M0.883945 8.89222C0.883523 10.4046 1.28177 11.8813 2.03904 13.1828L0.811523 17.63L5.39815 16.4367C6.66675 17.1219 8.08812 17.481 9.53252 17.4811H9.53632C14.3046 17.4811 18.186 13.6311 18.1881 8.89899C18.189 6.60594 17.2898 4.44971 15.6562 2.82748C14.0228 1.20538 11.8505 0.311593 9.53597 0.310547C4.76717 0.310547 0.885984 4.16031 0.884016 8.89222" fill="url(#paint0_linear_303_1921)"/>
<path d="M0.575234 8.88949C0.574742 10.4563 0.987266 11.9858 1.77153 13.334L0.5 17.9405L5.25109 16.7044C6.56016 17.4126 8.03405 17.786 9.53382 17.7866H9.53769C14.477 17.7866 18.4979 13.7981 18.5 8.8966C18.5008 6.52116 17.5693 4.28742 15.8773 2.60707C14.1851 0.92693 11.9351 0.000976744 9.53769 0C4.59753 0 0.577203 3.98791 0.575234 8.88949ZM3.40468 13.1018L3.22728 12.8223C2.48155 11.6458 2.08794 10.2862 2.0885 8.89005C2.09005 4.81598 5.43158 1.5014 9.5405 1.5014C11.5303 1.50223 13.4004 2.27191 14.8069 3.66837C16.2134 5.06498 16.9873 6.92149 16.9868 8.89605C16.985 12.9701 13.6434 16.2851 9.53769 16.2851H9.53473C8.19788 16.2844 6.88677 15.9282 5.74334 15.255L5.47123 15.0949L2.65184 15.8284L3.40468 13.1018Z" fill="url(#paint1_linear_303_1921)"/>
<path d="M7.29787 5.17328C7.13011 4.8033 6.95355 4.79584 6.79401 4.78935C6.66337 4.78377 6.51403 4.78419 6.36482 4.78419C6.21548 4.78419 5.97283 4.83993 5.76773 5.06214C5.56242 5.28456 4.98389 5.82205 4.98389 6.91523C4.98389 8.00842 5.78636 9.06498 5.89823 9.21337C6.01024 9.36149 7.44743 11.6767 9.72358 12.5673C11.6153 13.3075 12.0002 13.1603 12.4108 13.1231C12.8214 13.0862 13.7358 12.5858 13.9223 12.0669C14.109 11.5481 14.109 11.1034 14.053 11.0105C13.997 10.9179 13.8477 10.8623 13.6237 10.7513C13.3998 10.6402 12.2988 10.1026 12.0935 10.0284C11.8882 9.9543 11.7389 9.91733 11.5896 10.1398C11.4403 10.362 11.0114 10.8623 10.8807 11.0105C10.7501 11.159 10.6194 11.1775 10.3956 11.0664C10.1715 10.9549 9.45028 10.7206 8.59464 9.96365C7.92893 9.37468 7.47949 8.64735 7.34885 8.42486C7.21821 8.20272 7.33486 8.0823 7.44714 7.97158C7.54776 7.87202 7.67116 7.71212 7.78324 7.58242C7.89489 7.45265 7.93216 7.36007 8.00683 7.21188C8.08157 7.06356 8.04417 6.93379 7.98827 6.82265C7.93216 6.71151 7.497 5.61261 7.29787 5.17328Z" fill="white"/>
<defs>
<linearGradient id="paint0_linear_303_1921" x1="869.639" y1="1732.25" x2="869.639" y2="0.310547" gradientUnits="userSpaceOnUse">
<stop stop-color="#1FAF38"/>
<stop offset="1" stop-color="#60D669"/>
</linearGradient>
<linearGradient id="paint1_linear_303_1921" x1="900.5" y1="1794.05" x2="900.5" y2="0" gradientUnits="userSpaceOnUse">
<stop stop-color="#F9F9F9"/>
<stop offset="1" stop-color="white"/>
</linearGradient>
</defs>
</svg>
