<svg width="260" height="214" viewBox="0 0 260 214" fill="none" xmlns="http://www.w3.org/2000/svg">
<path d="M28.5601 12.2156C74.5427 -20.3514 110.008 22.5084 110.008 22.5084L209.511 142.548C209.511 142.548 215.841 152.969 206.725 161.123C197.609 169.277 191.231 163.503 191.231 163.503C191.231 163.503 197.013 176.048 186.914 182.014C176.816 187.981 169.649 180.213 169.649 180.213C169.649 180.213 175.463 194.06 165.525 200.461C155.572 206.862 145.457 196.167 145.457 196.167C145.457 196.167 149.436 207.762 140.078 211.638C130.72 215.53 123.763 210.078 123.763 210.078C108.607 199.464 37.1607 127.334 37.1607 127.334C-3.42645 87.0795 -17.0682 44.5253 28.5601 12.2156Z" fill="#FCDD09"/>
<path d="M85.6883 76.5936L156.571 16.7989C156.571 16.7989 203.02 -25.5302 247.57 24.2612C281.763 62.4732 233.799 114.902 204.486 137.643L154.38 76.0146C154.38 76.0146 115.839 107.536 96.0283 93.2389C94.0151 91.7915 83.675 78.3948 85.6883 76.5936Z" fill="#DA121A"/>
<path fill-rule="evenodd" clip-rule="evenodd" d="M153.647 75.4653C153.95 75.0604 154.524 74.978 154.929 75.2814L154.935 75.2854L154.956 75.3009C154.975 75.315 155.004 75.3365 155.043 75.365C155.121 75.4221 155.24 75.5076 155.396 75.6185C155.709 75.8405 156.175 76.1645 156.783 76.5685C157.997 77.3766 159.774 78.504 162.014 79.774C166.496 82.3154 172.82 85.4202 180.191 87.6831C194.94 92.2109 213.754 93.3387 230.49 80.0259C230.886 79.7109 231.463 79.7765 231.778 80.1725C232.093 80.5685 232.027 81.1448 231.631 81.4598C214.239 95.2942 194.713 94.0579 179.653 89.4347C172.12 87.1222 165.673 83.9547 161.11 81.3679C158.828 80.0737 157.014 78.923 155.768 78.0939C155.145 77.6793 154.663 77.3451 154.336 77.1133C154.173 76.9974 154.048 76.9072 153.963 76.8454C153.921 76.8144 153.889 76.7906 153.866 76.7742L153.841 76.7553L153.834 76.7501L153.832 76.7486C153.831 76.7481 153.831 76.7478 154.38 76.0146L153.831 76.7478C153.426 76.4445 153.343 75.8703 153.647 75.4653ZM161.886 129.211C162.27 128.882 162.848 128.927 163.177 129.311L191.926 162.891C192.256 163.276 192.211 163.854 191.826 164.183C191.442 164.512 190.864 164.467 190.535 164.083L161.785 130.503C161.456 130.118 161.501 129.54 161.886 129.211ZM140.553 147.005C140.933 146.672 141.512 146.71 141.846 147.09L170.353 179.593C170.687 179.973 170.649 180.552 170.269 180.886C169.888 181.219 169.309 181.181 168.976 180.801L140.468 148.298C140.135 147.918 140.173 147.339 140.553 147.005ZM117.083 164.12C117.462 163.785 118.041 163.82 118.376 164.198L146.159 195.543C146.495 195.922 146.46 196.501 146.081 196.836C145.702 197.172 145.123 197.137 144.788 196.758L117.005 165.414C116.669 165.035 116.704 164.456 117.083 164.12Z" fill="#950006"/>
</svg>
